<?xml version="1.0" encoding="UTF-8"?><svg id="Layer_1" xmlns="http://www.w3.org/2000/svg" viewBox="0 0 24 24"><path d="m22.73,8.05c0-4.99-3.27-6.45-3.27-6.45-1.65-.76-4.48-1.08-7.42-1.1h-.07c-2.94.02-5.77.34-7.42,1.1,0,0-3.27,1.46-3.27,6.45,0,1.14-.02,2.51.01,3.96.12,4.88.89,9.69,5.41,10.88,2.08.55,3.87.67,5.3.59,2.61-.14,4.07-.93,4.07-.93l-.09-1.89s-1.86.59-3.96.52c-2.07-.07-4.26-.22-4.6-2.77-.03-.22-.05-.46-.05-.71,0,0,2.04.5,4.62.62,1.58.07,3.06-.09,4.56-.27,2.88-.34,5.39-2.12,5.71-3.74.5-2.56.46-6.24.46-6.24Zm-3.86,6.43h-2.39v-5.86c0-1.24-.52-1.86-1.56-1.86-1.15,0-1.73.74-1.73,2.22v3.21h-2.38v-3.21c0-1.47-.58-2.22-1.73-2.22-1.04,0-1.56.63-1.56,1.86v5.86h-2.39v-6.04c0-1.23.31-2.22.95-2.94.65-.73,1.5-1.1,2.56-1.1,1.22,0,2.15.47,2.77,1.41l.6,1,.6-1c.61-.94,1.54-1.41,2.77-1.41,1.06,0,1.91.37,2.56,1.1.63.73.95,1.71.95,2.94v6.04Z"/></svg>