<?xml version="1.0" encoding="UTF-8"?><svg id="Layer_1" xmlns="http://www.w3.org/2000/svg" viewBox="0 0 281 281"><defs><style>.cls-1{fill:#fff;}.cls-2{fill:#f20132;}</style></defs><g><circle class="cls-2" cx="140.5" cy="140.5" r="134"/><path class="cls-1" d="m140.5,281C63.03,281,0,217.97,0,140.5S63.03,0,140.5,0s140.5,63.03,140.5,140.5-63.03,140.5-140.5,140.5Zm0-268c-70.3,0-127.5,57.2-127.5,127.5s57.2,127.5,127.5,127.5,127.5-57.2,127.5-127.5S210.8,13,140.5,13Z"/></g><g><path class="cls-1" d="m31.72,168.34c-3.3-.82-5.97-1.96-8-3.43l5.44-6.93.45-.52.32.26c.04.35.17.65.39.91.22.26.6.6,1.17,1.04,1.29.82,2.77,1.46,4.43,1.91,1.66.45,3.74.68,6.25.68s4.87-.22,6.83-.65c1.96-.44,3.5-1.19,4.6-2.27,1.1-1.08,1.65-2.55,1.65-4.42v-17.97h-21.75v-8.03h31.72v25.82c0,3.75-.97,6.71-2.91,8.9-1.94,2.19-4.63,3.75-8.06,4.67-3.43.93-7.41,1.37-11.94,1.33-3.75-.04-7.28-.48-10.58-1.29Zm27.87-45.64c-1.55,0-2.88-.55-3.98-1.65s-1.65-2.43-1.65-3.98.54-2.95,1.62-4.05c1.08-1.1,2.42-1.65,4.01-1.65,1.51,0,2.84.57,3.98,1.72,1.14,1.14,1.72,2.47,1.72,3.98s-.57,2.88-1.72,3.98c-1.14,1.1-2.47,1.65-3.98,1.65Z"/><path class="cls-1" d="m95.71,159.01c-7.16,0-12.62-.7-16.38-2.09-3.75-1.39-5.63-3.63-5.63-6.71,0-1.64.57-3.13,1.72-4.46,1.14-1.33,2.93-2.46,5.37-3.38,2.44-.93,5.61-1.63,9.52-2.12,3.91-.49,8.64-.73,14.21-.73,1.42,0,3,.06,4.73.16,1.73.11,3.51.25,5.34.42,1.83.17,3.66.32,5.47.45l-.19,6.54c-1.55-.13-3.18-.22-4.89-.26-1.71-.04-3.39-.06-5.05-.06h-4.63c-4.19,0-7.7.08-10.55.24-2.85.16-5.14.38-6.86.65-1.73.28-2.97.58-3.72.92-.76.34-1.13.7-1.13,1.1,0,.32.23.6.68.86s1.21.47,2.27.65c1.06.18,2.45.32,4.18.42,1.73.1,3.86.15,6.41.15,3.37,0,6.33-.11,8.9-.33,2.57-.22,4.74-.61,6.51-1.18,1.77-.56,3.1-1.37,3.98-2.42.88-1.05,1.33-2.38,1.33-3.99,0-2.34-.6-4.1-1.81-5.29-1.21-1.19-2.99-1.99-5.34-2.42-2.35-.42-5.28-.63-8.77-.63-4.45,0-8.17.3-11.17.91-3,.6-5.64,1.42-7.93,2.46l-5.31-5.5c2.81-1.38,6.13-2.58,9.97-3.59,3.84-1.01,8.65-1.52,14.44-1.52,3.76,0,7.19.2,10.29.6,3.11.4,5.78,1.13,8.03,2.2,2.24,1.07,3.98,2.58,5.21,4.55,1.23,1.97,1.85,4.52,1.85,7.65v15.24h-9.84v-3.43c-1.34.65-2.86,1.22-4.56,1.72-1.71.5-3.52.91-5.44,1.23-1.92.32-3.83.57-5.73.74-1.9.17-3.71.26-5.44.26Z"/><path class="cls-1" d="m136.21,158.5v-29.59h9.97v4.53c.69-.95,1.58-1.81,2.65-2.59,1.08-.78,2.31-1.4,3.69-1.88,1.38-.47,2.85-.71,4.4-.71,1.73,0,3.34.31,4.86.94,1.51.63,2.76,1.39,3.76,2.3.99.91,1.57,1.79,1.75,2.65.73-.86,1.76-1.76,3.07-2.69,1.32-.93,2.84-1.7,4.56-2.33,1.73-.63,3.56-.92,5.5-.87,3.19.04,5.74.45,7.64,1.22,1.9.77,3.34,1.73,4.34,2.85.99,1.13,1.65,2.31,1.97,3.54.32,1.23.49,2.33.49,3.29v19.32h-10.1v-17.46c0-1.41-.26-2.52-.78-3.32-.52-.81-1.22-1.4-2.1-1.77-.89-.37-1.84-.56-2.88-.56-1.64,0-3.09.32-4.34.96-1.25.64-2.23,1.49-2.95,2.55-.71,1.06-1.07,2.23-1.07,3.51v16.09h-10.16v-17.08c0-1.45-.44-2.8-1.33-4.04-.89-1.24-2.36-1.86-4.43-1.86-.95,0-1.91.16-2.88.47-.97.31-1.88.75-2.72,1.3-.84.56-1.52,1.25-2.04,2.08-.52.83-.78,1.78-.78,2.86v16.27h-10.1Z"/><path class="cls-1" d="m229.83,159.01c-5.83.09-10.83-.53-15.02-1.85-4.19-1.32-7.41-3.15-9.68-5.49s-3.4-4.96-3.4-7.85,1.13-5.56,3.4-7.91c2.27-2.34,5.49-4.2,9.68-5.58,4.19-1.38,9.19-2.07,15.02-2.07s10.79.69,14.89,2.07c4.1,1.38,7.22,3.24,9.36,5.58,2.14,2.34,3.2,4.98,3.2,7.91s-1.07,5.48-3.2,7.78c-2.14,2.3-5.25,4.11-9.36,5.43-4.1,1.32-9.06,1.98-14.89,1.98Zm0-8.03c3.45,0,6.43-.28,8.93-.85,2.5-.57,4.42-1.39,5.76-2.46,1.34-1.07,2.01-2.38,2.01-3.92s-.67-2.92-2.01-4.04c-1.34-1.11-3.26-1.96-5.76-2.55-2.5-.59-5.48-.88-8.93-.88s-6.48.29-9.1.88c-2.61.59-4.64,1.44-6.09,2.55-1.45,1.11-2.17,2.46-2.17,4.04s.72,2.84,2.17,3.92c1.45,1.07,3.47,1.89,6.09,2.46,2.61.57,5.64.85,9.1.85Z"/></g></svg>